<svg width="1025" height="1025" viewBox="0 0 1025 1025" fill="none"
    xmlns="http://www.w3.org/2000/svg">
    <style>
        path {
        color: #3C3B3B;
        }
        @media (prefers-color-scheme: dark) {
        path {
        color: white;
        }}

        @media (prefers-color-scheme: light) {
        path {
        color: #3C3B3B;
        }
        }
    </style>
    <path fill-rule="evenodd" clip-rule="evenodd"
        d="M466.752 499.066C435.601 519.641 407.606 546.78 385.001 579.976C297.828 707.995 323.847 877.613 443.117 958.829C549.693 1031.4 694.663 1008.83 786.511 911.865C714.52 941.042 629.749 934.838 560.726 887.837C497.246 844.61 460.992 776.348 456.177 705.238C470.605 764.819 505.188 818.351 558.177 854.434C677.447 935.65 844.803 897.709 931.976 769.69C976.061 704.949 991.197 629.569 979.963 560.364C999.663 515.273 1007.24 467.385 1003.43 421.406C997.11 461.562 982.022 500.987 957.623 536.818C869.405 666.371 692.867 699.879 563.314 611.661C520.147 582.267 487.643 543.066 466.752 499.066ZM937.076 677.868C960.724 643.139 974.044 604.425 977.727 565.357C970.808 580.432 962.519 595.172 952.832 609.397C865.659 737.416 698.303 775.357 579.033 694.141C552.855 676.315 531.169 654.23 514.186 629.261C531.147 673.251 561.194 712.712 603.113 741.257C712.839 815.974 862.359 787.593 937.076 677.868Z"
        fill="currentColor" />
    <path
        d="M496.348 986.258C416.994 975.201 6.37543 896.233 150.32 597.186C206.552 480.363 437.643 342.068 543.478 300.412L615.907 279.536C659.038 264.498 723.375 307.395 658.056 361.082C667.835 306.475 663.228 306.764 629.188 308.896C614.797 309.798 595.147 311.029 569.099 308.581C537.299 326.416 475.705 390.091 465.824 499.682C435.045 520.182 407.381 547.111 385.001 579.977C297.828 707.995 323.848 877.613 443.118 958.829C460.017 970.337 477.882 979.452 496.348 986.258Z"
        fill="#4A6184" />
    <path fill-rule="evenodd" clip-rule="evenodd"
        d="M658.103 361.043C658.056 361.105 658.009 361.168 657.961 361.23C809.232 340.102 767.849 275.119 685.672 174.855C707.443 126.032 611.883 18.8 464.305 22.568C316.727 26.3359 159.991 238.178 100.07 343.628C110.014 334.993 139.791 314.583 179.354 302.024C146.123 322.957 72.7528 381.936 45.1212 450.386C15.4734 523.832 -41.2758 768.898 266.587 915.105C158.598 858.295 71.6623 760.598 150.32 597.186C206.552 480.362 437.643 342.068 543.478 300.412L615.907 279.536C659.027 264.502 723.344 307.374 658.103 361.043ZM488.626 166.329C523.614 189.284 547.367 203.198 563.895 211.326C581.246 219.859 579.648 224.411 560.316 224.762C506.388 225.744 476.69 213.901 457.091 195.579C441.75 181.239 471.068 154.809 488.626 166.329Z"
        fill="currentColor" />
    <path
        d="M449.742 978C449.998 978.062 450.254 978.124 450.51 978.186C450.504 978.176 450.498 978.166 450.493 978.156C450.243 978.104 449.993 978.052 449.742 978Z"
        fill="currentColor" />
</svg>