<svg xmlns="http://www.w3.org/2000/svg" viewBox="0 0 24 24" fill="currentColor">
  <defs>
    <mask id="nx-x-mask">
      <rect width="24" height="24" fill="#ffffff" />
      <!-- Recorte de espacio negativo alrededor de la X -->
      <path d="M14.8 11.2h2l1.2 2.2 1.2-2.2h2l-2.1 3.8 2.1 3.7h-2l-1.2-2.2-1.2 2.2h-2l2.1-3.7-2.1-3.8z" 
            fill="#000000" stroke="#000000" stroke-width="1.8" stroke-linejoin="round" stroke-linecap="round"/>
    </mask>
  </defs>

  <!-- Marco Hexagonal y N recortados para dar paso a la X con relieve -->
  <g mask="url(#nx-x-mask)">
    <path d="M12 1.5L2.5 7v10L12 22.5l9.5-5.5V7L12 1.5zm7.5 14.3L12 20.1l-7.5-4.3V8.2L12 3.9l7.5 4.3v7.6z"/>
    <path d="M6 7.5h2.2l3.8 5.8V7.5H14v9h-2.2L8 10.7v5.8H6v-9z"/>
  </g>

  <!-- La letra X sobrepuesta limpiamente -->
  <path d="M14.8 11.2h2l1.2 2.2 1.2-2.2h2l-2.1 3.8 2.1 3.7h-2l-1.2-2.2-1.2 2.2h-2l2.1-3.7-2.1-3.8z"/>
</svg>
